<?xml version="1.0" standalone="no"?><!DOCTYPE svg PUBLIC "-//W3C//DTD SVG 1.1//EN" "http://www.w3.org/Graphics/SVG/1.1/DTD/svg11.dtd"><svg class="icon" height="512" viewBox="0 0 1024 1024" version="1.1" xmlns="http://www.w3.org/2000/svg"><path d="M512 64C264.6 64 64 264.6 64 512s200.6 448 448 448 448-200.6 448-448S759.4 64 512 64z m0 832c-212.1 0-384-171.9-384-384s171.9-384 384-384 384 171.9 384 384-171.9 384-384 384zM511.1 800c65.3-0.3 121.3-39.7 145.9-96h1.6c8.6-19.6 13.3-41.2 13.3-64H352c0 88.1 71.2 159.5 159.1 160zM416 480m-32 0a32 32 0 1 0 64 0 32 32 0 1 0-64 0ZM512 128c-212.1 0-384 171.9-384 384 0 128.5 63.1 242.2 160 311.9V544c0-123.2 100.8-224 224-224s224 100.8 224 224v279.9c96.9-69.7 160-183.4 160-311.9 0-212.1-171.9-384-384-384zM608 479.7m-32 0a32 32 0 1 0 64 0 32 32 0 1 0-64 0ZM416 479.7m-44 0a44 44 0 1 0 88 0 44 44 0 1 0-88 0ZM608 479.7m-44 0a44 44 0 1 0 88 0 44 44 0 1 0-88 0Z" /></svg>